<?xml version="1.0" encoding="UTF-8"?> <svg xmlns="http://www.w3.org/2000/svg" xmlns:xlink="http://www.w3.org/1999/xlink" xmlns:xodm="http://www.corel.com/coreldraw/odm/2003" xmlns:i="http://ns.adobe.com/AdobeIllustrator/10.0/" xml:space="preserve" width="262.08mm" height="76.1367mm" version="1.1" style="shape-rendering:geometricPrecision; text-rendering:geometricPrecision; image-rendering:optimizeQuality; fill-rule:evenodd; clip-rule:evenodd" viewBox="0 0 116418.36 33820.58"> <defs> <style type="text/css"> .fil0 {fill:white;fill-rule:nonzero} </style> </defs> <g id="Layer_x0020_1"> <metadata id="CorelCorpID_0Corel-Layer"></metadata> <g id="SketchDesign.svg"> <g> <path class="fil0" d="M45953.16 23196.93c55.26,64.63 83.47,133.97 83.47,208.02 0,102.26 -39.98,189.23 -117.54,263.28 -78.76,74.05 -169.24,110.47 -270.3,110.47l-14.17 0c-148.1,0 -286.78,-83.47 -416.05,-249.16l-9054.53 -10759.89 -4603.64 4895.13 0 5670.81c0,296.2 -119.89,444.25 -360.83,444.25l-14.08 0.04c-249.16,0 -374.91,-148.1 -374.91,-444.25l0 -18884.77c0,-296.2 124.6,-443.1 374.91,-443.1l14.08 0c239.78,0 360.83,148.1 360.83,443.1l0 12187.88 11549.69 -12381.83c166.89,-175.11 305.57,-263.28 416.05,-263.28l28.21 0c101.06,0 189.23,39.98 263.28,117.54 74.05,78.76 110.47,169.24 110.47,270.3 0,101.06 -32.92,184.52 -97.55,249.16l-7141.14 7570.11 9262.55 10994.96 1.2 1.2z"></path> <path class="fil0" d="M50016.15 3992.5l12867.21 0c296.2,0 443.1,124.6 443.1,374.91l0 14.13c0,129.26 -39.98,226.81 -117.54,291.49 -78.76,64.63 -186.88,97.55 -325.56,97.55l-12492.3 -0.04 0 8375.2 10232.21 0.04c138.68,0 251.51,30.56 339.64,90.49 88.13,59.92 131.62,155.16 131.62,284.43l0 14.13c0,129.26 -44.64,224.5 -131.62,284.43 -88.13,59.92 -200.96,90.49 -339.64,90.49l-10232.21 -0.04 0 9095.66 12770.86 0c296.2,0 443.1,124.6 443.1,374.91l0 14.13c0,129.26 -39.98,226.81 -117.54,291.49 -78.76,64.63 -186.88,97.55 -325.56,97.55l-13144.58 0c-249.16,0 -374.91,-129.26 -374.91,-387.84l-0.04 -19028.16c0,-249.16 124.6,-374.91 374.91,-374.91l-1.15 0z"></path> <path class="fil0" d="M65641.81 3992.5l14198.82 0c239.78,0 360.83,124.6 360.83,374.91l0 14.13c0,258.57 -119.89,387.84 -360.83,387.84l-6696.89 0 0 18621.49c0,258.57 -119.89,387.84 -360.83,387.84l-14.08 0c-258.57,0 -387.84,-129.26 -387.84,-387.84l0 -18621.49 -6739.18 0c-258.57,0 -387.84,-129.26 -387.84,-387.84l0 -14.13c0,-249.16 129.26,-374.91 387.84,-374.91z"></path> <path class="fil0" d="M96603.95 20936.84c92.84,0 170.4,32.92 236.23,97.55l28.21 28.21c55.26,55.26 83.47,129.26 83.47,222.15 0,148.1 -59.92,267.99 -179.82,360.83 -877.93,748.67 -1848.75,1329.25 -2912.41,1740.63 -1062.46,411.34 -2186.08,617.05 -3369.59,617.05 -1848.75,0 -3554.11,-450.16 -5116.08,-1351.59 -1561.97,-901.48 -2803.09,-2126.12 -3723.36,-3674 -920.27,-1547.89 -1379.8,-3242.68 -1379.8,-5082.01 0,-1839.33 457.18,-3544.7 1372.74,-5089.08 915.56,-1543.18 2155.52,-2766.66 3723.36,-3666.94 1566.68,-901.48 3274.39,-1351.59 5123.15,-1351.59 1183.55,0 2303.58,200.96 3362.53,602.92 1057.79,401.96 2035.63,973.17 2932.4,1712.42 148.1,138.68 222.15,263.28 222.15,374.91 0,28.21 -7.06,55.26 -21.14,83.47 -14.13,28.21 -21.14,45.84 -21.14,55.26l-28.21 55.26 -14.13 14.13c-83.47,83.47 -185.68,124.6 -305.57,124.6 -102.26,0 -203.31,-36.43 -305.57,-110.47 -1820.54,-1404.5 -3762.14,-2107.33 -5823.62,-2107.33 -1710.07,0 -3288.48,411.34 -4735.31,1234.06 -1446.79,822.72 -2590.36,1946.3 -3431.87,3369.59 -841.51,1423.29 -1262.26,2989.97 -1262.26,4700.04 0,1710.07 423.11,3274.39 1268.17,4692.97 846.22,1418.58 1989.79,2542.16 3431.87,3369.59 1442.08,827.43 3018.18,1241.12 4728.25,1241.12 2061.48,0 3998.37,-712.24 5809.54,-2135.53 101.06,-83.47 203.31,-124.6 305.57,-124.6l2.27 -3.6z"></path> <path class="fil0" d="M101345.12 14309.29l0 9026.32c0,296.2 -119.89,444.25 -360.83,444.25l-14.08 0.04c-249.16,0 -374.91,-148.1 -374.91,-444.25l0 -18898.9c0,-296.2 124.6,-443.1 374.91,-443.1l14.08 0c239.78,0 360.83,148.1 360.83,443.1l0 9123.87 14323.42 0 0 -9123.87c0,-296.2 124.6,-443.1 374.91,-443.1l14.08 0c239.78,0 360.83,148.1 360.83,443.1l0 18898.85c0,296.2 -119.89,444.25 -360.83,444.25l-14.08 0.04c-249.16,0 -374.91,-148.1 -374.91,-444.25l0 -9026.32 -14323.42 -0.04z"></path> </g> <path class="fil0" d="M18339.42 9457.64c-111.67,0 -215.09,-28.21 -309.12,-83.47 -95.19,-55.26 -202.16,-130.46 -322.05,-225.66l-25.85 -12.93c-163.38,-163.38 -373.76,-344.35 -632.33,-541.8 -258.57,-197.45 -546.51,-383.13 -863.85,-554.73 -318.5,-171.6 -660.54,-318.5 -1026.03,-438.39 -365.54,-119.89 -738.1,-181.01 -1115.36,-181.01 -481.88,0 -907.34,54.06 -1277.54,161.03 -370.2,108.12 -679.33,253.87 -928.48,438.39 -249.16,184.52 -438.39,401.96 -567.65,651.12 -129.26,249.16 -193.94,515.95 -193.94,800.38 0,309.12 96.39,580.58 290.29,812.15 193.94,232.72 456.02,438.39 787.45,619.4 331.42,181.01 711.04,346.7 1141.22,497.16 430.17,150.45 881.49,298.51 1353.95,445.45 541.8,163.38 1078.94,339.64 1612.52,528.87 533.58,189.23 1042.51,401.96 1529.05,638.19 485.39,236.23 939.06,498.31 1361.01,787.45 420.75,287.94 785.09,619.4 1089.51,993.12 305.57,373.76 546.51,790.96 722.82,1251.69 176.31,460.73 264.44,977.84 264.44,1554.91 0,937.9 -189.23,1784.12 -567.65,2541.01 -378.47,756.89 -901.48,1404.5 -1567.83,1941.59 -666.4,537.09 -1449.14,950.83 -2348.26,1238.76 -899.12,287.94 -1864.03,432.53 -2895.93,432.53 -662.89,0 -1319.88,-77.56 -1973.35,-232.72 -653.48,-155.16 -1281.1,-373.76 -1884.02,-658.18 -601.77,-283.23 -1171.78,-625.27 -1708.87,-1026.03 -537.09,-399.61 -1016.62,-848.57 -1438.57,-1348.08l0 12.93 -25.85 -51.71c-189.23,-215.09 -283.23,-412.54 -283.23,-593.51 0,-94.04 25.85,-184.52 77.56,-271.5 51.71,-85.78 129.26,-181.01 232.72,-283.23l425.46 -425.46c129.26,-111.67 266.79,-236.23 412.54,-373.76 145.74,-137.53 292.64,-262.08 438.39,-373.76 145.74,-111.67 282.07,-206.87 406.67,-283.23 124.6,-77.56 225.66,-116.34 303.22,-116.34 119.89,0 232.72,38.78 334.98,116.34 103.41,77.56 189.23,150.45 258.57,219.79l51.71 51.71 -12.97 0c300.86,283.23 638.19,554.73 1013.11,812.15 373.76,258.57 759.24,487.74 1154.14,689.9 394.9,202.16 788.65,360.83 1180,477.17 391.39,116.34 759.24,173.95 1102.44,173.95 472.46,0 915.56,-59.92 1329.25,-181.01 412.54,-119.89 769.81,-290.29 1070.72,-508.89 300.86,-219.79 537.09,-484.23 709.89,-793.31 171.6,-309.12 257.37,-653.48 257.37,-1031.9 0,-378.42 -111.67,-702.83 -334.98,-974.33 -223.3,-271.5 -515.95,-507.73 -876.78,-709.89 -360.83,-202.16 -767.46,-376.11 -1218.78,-521.86 -451.32,-145.74 -904.99,-283.23 -1361.01,-412.54 -1049.53,-318.5 -1967.44,-661.69 -2753.74,-1031.9 -787.45,-370.2 -1443.28,-785.09 -1967.44,-1244.63 -524.17,-459.53 -917.91,-975.48 -1180,-1547.89 -262.08,-572.36 -393.75,-1214.07 -393.75,-1928.66 0,-800.38 161.03,-1529.05 484.23,-2186.08 322.05,-658.18 780.39,-1221.13 1373.94,-1690.08 593.51,-468.95 1306.95,-834.45 2141.4,-1096.57 834.45,-262.08 1767.64,-393.75 2799.58,-393.75 782.74,0 1578.45,122.25 2387.04,367.85 808.59,245.65 1556.11,582.93 2244.81,1013.11 206.87,129.26 417.25,275.01 632.33,438.39 215.09,163.38 412.54,329.07 593.51,497.16 181.01,168.09 329.07,331.42 445.45,490.1 116.34,158.67 173.95,295 173.95,406.67 0,103.41 -25.85,209.22 -77.56,316.14 -51.71,108.12 -116.34,204.51 -193.94,290.29l-386.68 412.54 0 -12.93c-129.26,137.53 -262.08,279.72 -399.61,425.46 -137.53,146.9 -275.01,277.36 -412.54,393.75 -137.53,116.34 -262.08,212.73 -373.76,290.29 -111.67,77.56 -206.87,116.34 -283.23,116.34l-4.66 -3.51z"></path> <path class="fil0" d="M13882.67 27765.35c-7654.74,0 -13882.67,-6227.94 -13882.67,-13882.67 0,-7654.74 6227.94,-13882.67 13882.67,-13882.67 7654.74,0 13882.67,6227.94 13882.67,13882.67 0,7654.74 -6227.94,13882.67 -13882.67,13882.67zm0 -25452.35c-6379.55,0 -11569.68,5190.13 -11569.68,11569.68 0,6379.55 5190.13,11569.68 11569.68,11569.68 6379.55,0 11569.68,-5190.13 11569.68,-11569.68 0,-6379.55 -5190.13,-11569.68 -11569.68,-11569.68z"></path> <g> <path class="fil0" d="M72498.53 27518.5l1879.27 0c598.22,0 1144.73,139.88 1639.53,420.75 493.65,280.92 883.84,659.34 1168.27,1135.35 284.43,477.17 427.82,996.67 427.82,1560.82 0,564.14 -142.19,1078.94 -427.82,1553.75 -284.43,474.81 -674.62,852.08 -1168.27,1131.8 -493.65,278.56 -1040.16,418.4 -1639.53,418.4l-1892.2 0c-69.34,-5.86 -104.61,-47 -104.61,-122.25l0 -5981.09c0,-78.76 38.78,-117.54 117.54,-117.54zm4472.03 1672.49c-264.44,-440.74 -626.42,-788.65 -1086,-1043.67 -459.53,-256.22 -967.26,-383.13 -1525.55,-383.13l-1744.14 -0.04 0 5733.13 1744.14 0c558.28,0 1067.17,-126.95 1525.55,-381.97 459.53,-253.87 821.52,-600.57 1086,-1037.8 264.44,-437.23 397.26,-917.91 397.26,-1440.92 0,-523.01 -132.82,-1004.89 -397.26,-1445.63l0 0.04z"></path> <path class="fil0" d="M81682.32 27518.5l4045.41 0c92.84,0 139.88,38.78 139.88,117.54l0 4.71c0,41.13 -11.77,71.7 -36.43,91.68 -24.7,19.99 -58.77,30.56 -102.26,30.56l-3927.91 0 0 2632.69 3216.83 -0.04c43.49,0 78.76,9.42 106.97,28.21 28.21,18.79 41.13,48.2 41.13,89.33l0 4.71c0,41.13 -14.13,70.54 -41.13,89.33 -28.21,18.79 -63.48,28.21 -106.97,28.21l-3216.83 0 0 2859.5 4014.85 0c92.84,0 139.88,38.78 139.88,117.54l0 4.71c0,41.13 -11.77,71.7 -37.62,91.68 -24.7,19.99 -58.77,30.56 -102.26,30.56l-4132.38 -0.04c-78.76,0 -117.54,-41.13 -117.54,-122.25l0 -5981.09c0,-78.76 38.78,-117.54 117.54,-117.54l-1.15 0z"></path> <path class="fil0" d="M89302.98 32754.48c0,-31.72 11.77,-59.92 35.27,-82.27l9.42 -8.22c19.99,-11.77 42.33,-17.64 65.83,-17.64 41.13,0 84.62,28.21 130.46,82.27 226.81,282.07 499.51,494.8 816.86,638.19 318.5,143.39 708.69,216.24 1170.62,216.24 392.55,0 742.81,-52.91 1053.09,-157.47 309.12,-104.61 555.93,-272.66 741.61,-503.02 184.52,-231.52 276.21,-526.52 276.21,-887.35 0,-311.43 -106.97,-558.28 -320.85,-742.81 -213.89,-184.52 -453.67,-317.34 -721.62,-398.41 -267.99,-81.11 -607.63,-162.18 -1020.17,-244.45 -479.52,-86.98 -872.07,-197.45 -1178.84,-331.42 -306.77,-133.97 -537.09,-302.06 -691.1,-503.02 -153.96,-202.16 -231.52,-447.81 -231.52,-739.25 0,-343.2 89.33,-637 267.99,-880.29 178.66,-244.45 432.53,-428.97 762.75,-555.93 330.27,-126.95 720.46,-189.23 1170.62,-189.23 398.41,0 742.81,54.06 1035.45,161.03 292.64,106.97 572.36,290.29 839.15,548.86 25.85,25.85 38.78,57.57 38.78,96.39 0,29.36 -8.22,55.26 -25.85,78.76l-8.22 8.22c-23.5,14.13 -48.2,22.34 -74.05,22.34 -23.5,0 -47,-7.06 -69.34,-22.34 -23.5,-14.13 -50.55,-36.43 -82.27,-65.83 -173.95,-148.1 -332.62,-263.28 -474.81,-344.35 -142.19,-81.11 -305.57,-142.19 -490.1,-181.01 -184.52,-38.78 -413.69,-58.77 -686.39,-58.77 -339.64,0 -658.18,44.64 -951.98,135.17 -295,90.49 -537.09,237.43 -726.33,441.9 -189.23,204.51 -283.23,472.46 -283.23,803.93 0,380.82 173.95,673.46 520.66,877.93 346.7,204.51 813.3,363.18 1397.44,472.46 465.44,92.84 843.86,186.88 1137.71,280.92 293.84,94.04 551.22,248 773.37,461.89 222.15,213.89 333.78,501.87 333.78,865.01 0,394.9 -99.9,726.33 -300.86,994.32 -200.96,267.99 -474.81,466.6 -823.87,597.06 -349.06,130.46 -743.96,196.3 -1185.86,196.3 -465.44,0 -872.07,-72.85 -1222.33,-219.79 -350.26,-146.9 -666.4,-390.19 -948.47,-729.88 -37.62,-43.49 -56.41,-82.27 -56.41,-117.54l-2.58 1.11z"></path> <path class="fil0" d="M97807.45 27558.48c19.99,-25.85 49.35,-38.78 86.98,-38.78l4.71 0c75.2,0 112.83,47 112.83,139.88l0 5937.65c0,96.39 -37.62,143.39 -112.83,143.39l-4.71 -0.04c-41.13,0 -70.54,-12.93 -89.33,-38.78 -18.79,-25.85 -28.21,-61.12 -28.21,-104.61l0 -5937.65c0,-41.13 10.57,-74.05 30.56,-99.9l0 -1.15z"></path> <path class="fil0" d="M106286.1 33397.38c311.43,-115.18 598.22,-269.15 862.65,-464.24l0 -1826.41c0,-43.49 10.57,-77.56 30.56,-102.26 19.99,-24.7 50.55,-37.62 91.68,-37.62 78.76,0 117.54,47 117.54,139.88l0 1848.75c0,57.57 -18.79,104.61 -56.41,139.88 -267.99,220.95 -577.07,394.9 -928.48,523.01 -351.41,128.11 -709.89,191.59 -1076.58,191.59 -578.27,0 -1113.01,-142.19 -1604.3,-425.46 -491.29,-283.23 -880.29,-667.56 -1165.91,-1152.99 -286.78,-485.39 -428.97,-1016.62 -428.97,-1596.04 0,-579.43 143.39,-1115.36 428.97,-1601.95 286.78,-486.59 674.62,-872.07 1165.91,-1155.34 491.29,-283.23 1026.03,-425.46 1604.3,-425.46 371.4,0 726.33,63.48 1061.3,189.23 334.98,126.95 642.9,304.42 921.42,533.58 43.49,41.13 65.83,78.76 65.83,112.83 0,29.36 -7.06,50.55 -22.34,65.83l-4.71 4.71c-25.85,25.85 -56.41,38.78 -91.68,38.78 -31.72,0 -63.48,-11.77 -96.39,-35.27 -570.01,-436.04 -1181.2,-653.48 -1834.63,-653.48 -537.09,0 -1033.1,129.26 -1484.41,387.84 -452.47,258.57 -809.79,612.34 -1071.88,1058.95 -263.28,447.81 -394.9,940.26 -394.9,1477.35 0,537.09 131.62,1026.03 394.9,1476.19 263.28,448.96 620.56,803.93 1071.88,1066.01 452.47,262.08 947.27,392.55 1484.41,392.55 327.91,0 647.61,-57.57 959.05,-171.6l1.2 1.15z"></path> <path class="fil0" d="M111556.15 33596.03c0,96.39 -37.62,143.39 -112.83,143.39l-4.71 -0.04c-41.13,0 -70.54,-12.93 -89.33,-38.78 -18.79,-25.85 -28.21,-61.12 -28.21,-104.61l0 -5958.79c0,-29.36 9.42,-55.26 28.21,-78.76 18.79,-23.5 47,-36.43 84.62,-38.78l22.34 0.04c41.13,0 84.62,28.21 130.46,83.47l4590.72 5702.57 0 -5667.3c0,-78.76 41.13,-117.54 122.25,-117.54l4.71 -0.04c75.2,0 112.83,38.78 112.83,117.54l0 5958.79c0,96.39 -37.62,143.39 -112.83,143.39l-25.85 0c-37.62,0 -79.91,-25.85 -126.95,-78.76l-4595.43 -5715.5 0 5649.67 0 0.04z"></path> </g> </g> </g> </svg> 